<svg width="41" height="41" viewBox="0 0 41 41" fill="none" xmlns="http://www.w3.org/2000/svg">
<circle cx="20.5" cy="20.5" r="20.5" fill="black"/>
<path d="M26.8744 5.01501C26.8116 4.94376 24.5501 5.04314 22.582 7.2125C20.614 9.37999 20.9168 11.8662 20.9611 11.93C21.0054 11.9937 23.7673 12.0931 25.5304 9.57124C27.2934 7.04938 26.9371 5.08814 26.8744 5.01501ZM32.9925 27.0143C32.9039 26.8343 28.7002 24.7005 29.0916 20.5981C29.483 16.4937 32.1839 15.3687 32.2264 15.2468C32.2688 15.125 31.1242 13.7656 29.9113 13.0775C29.0207 12.5923 28.0351 12.3144 27.0258 12.2637C26.8264 12.2581 26.1341 12.0856 24.7107 12.4812C23.7728 12.7418 21.659 13.5856 21.0774 13.6193C20.494 13.6531 18.7587 12.6406 16.8922 12.3725C15.6977 12.1381 14.4313 12.6181 13.5248 12.9875C12.6202 13.355 10.8996 14.4012 9.69586 17.1818C8.49217 19.9606 9.12171 24.363 9.57217 25.7318C10.0226 27.0986 10.726 29.3393 11.9223 30.9743C12.9857 32.8192 14.3962 34.0999 14.9851 34.5349C15.574 34.9699 17.2356 35.2586 18.3876 34.6605C19.3143 34.083 20.987 33.7511 21.6479 33.7755C22.307 33.7999 23.6067 34.0642 24.9377 34.7861C25.9919 35.1555 26.9888 35.0017 27.9876 34.5892C28.9864 34.1749 30.4319 32.6036 32.1193 29.418C32.7599 27.9368 33.0516 27.1361 32.9925 27.0143Z" fill="white"/>
</svg>
