<svg width="41" height="41" viewBox="0 0 41 41" fill="none" xmlns="http://www.w3.org/2000/svg">
<circle cx="20.5" cy="20.5" r="20.5" fill="#EA4335"/>
<path d="M33.7696 19.0672C33.9242 19.9732 34.0013 20.8913 34 21.8109C34 25.9182 32.5578 29.3909 30.0479 31.7415H30.0513C27.8564 33.8053 24.8393 35 21.2619 35C17.7446 35 14.3714 33.5777 11.8843 31.0461C9.39723 28.5144 8 25.0808 8 21.5004C8 17.9201 9.39723 14.4865 11.8843 11.9548C14.3714 9.42316 17.7446 8.00089 21.2619 8.00089C24.5541 7.96164 27.7335 9.22063 30.1341 11.5141L26.3479 15.3683C24.9792 14.0402 23.1526 13.313 21.2619 13.3433C17.8022 13.3433 14.863 15.7193 13.8153 18.9187C13.2599 20.5951 13.2599 22.4108 13.8153 24.0873H13.8203C14.873 27.2816 17.8072 29.6576 21.2669 29.6576C23.0539 29.6576 24.589 29.1918 25.7793 28.3683H25.7743C26.4654 27.9023 27.0566 27.2985 27.5122 26.5935C27.9678 25.8884 28.2783 25.0967 28.425 24.2662H21.2619V19.0688L33.7696 19.0672Z" fill="white"/>
</svg>
