<svg width="41" height="41" viewBox="0 0 41 41" fill="none" xmlns="http://www.w3.org/2000/svg">
<circle cx="20.5" cy="20.5" r="20.5" fill="#FFE600"/>
<path fill-rule="evenodd" clip-rule="evenodd" d="M20.1602 7C11.7896 7 5 12.3581 5 18.9728C5 23.2245 7.81386 26.9548 12.0347 29.0807L10.604 34.415C10.5487 34.573 10.5961 34.7549 10.7147 34.8735C10.7937 34.9524 10.9044 35 11.0229 35C11.1178 35 11.2047 34.9603 11.2838 34.8971L17.4252 30.7482C18.3183 30.8746 19.2274 30.9457 20.1522 30.9457C28.5226 30.9457 35.3122 25.5877 35.3122 18.9728C35.3201 12.3581 28.5305 7 20.1602 7Z" fill="#381E1E"/>
<path fill-rule="evenodd" clip-rule="evenodd" d="M10.3098 17.1086H8.63541C8.40308 17.1086 8.21081 17.0526 8.04258 16.9489C7.87433 16.8451 7.77821 16.6933 7.73814 16.5019C7.73012 16.4539 7.72213 16.39 7.71411 16.3342C7.71411 16.0948 7.80224 15.9031 7.97849 15.7674C8.15474 15.6317 8.37103 15.5599 8.63541 15.5599H13.7465C13.9789 15.5599 14.1791 15.6158 14.3395 15.7196C14.5077 15.8234 14.6117 15.967 14.6518 16.1666C14.6599 16.2225 14.6679 16.2783 14.6599 16.3342C14.6599 16.5816 14.5718 16.7733 14.4036 16.909C14.2353 17.0447 14.019 17.1086 13.7465 17.1086H12.0802V22.8481C12.0802 23.1195 12.0001 23.3429 11.8399 23.5105C11.6797 23.6782 11.4634 23.7582 11.191 23.7582C10.9667 23.7582 10.7824 23.6943 10.6222 23.5744C10.462 23.4467 10.3658 23.2872 10.3258 23.0715C10.3098 22.9917 10.3098 22.9199 10.3098 22.8402V17.1086Z" fill="#FFE600"/>
<path fill-rule="evenodd" clip-rule="evenodd" d="M15.1402 16.1079C15.2114 15.9123 15.3143 15.7714 15.4569 15.6851C15.5995 15.5991 15.7736 15.5599 15.9956 15.5599H16.4152C16.6449 15.5599 16.8348 15.6069 16.9854 15.6931C17.1359 15.7791 17.2624 15.9593 17.3497 16.2175L19.464 22.2696C19.5354 22.4575 19.5828 22.6141 19.6066 22.7548C19.6224 22.841 19.6383 22.9114 19.6383 22.9663C19.6383 23.1855 19.5513 23.3734 19.3928 23.5222C19.2343 23.6788 19.0364 23.7492 18.8147 23.7492C18.4107 23.7492 18.1495 23.5849 18.0307 23.2558L17.5793 21.9405H14.76L14.3086 23.2558C14.1978 23.5849 13.9364 23.7492 13.5247 23.7492C13.3188 23.7492 13.1445 23.7022 13.01 23.5926C12.8674 23.4907 12.7803 23.3341 12.7407 23.1462C12.7249 23.0915 12.7249 23.0289 12.7249 22.9663C12.7249 22.88 12.7328 22.7706 12.7724 22.6454C12.804 22.5199 12.8436 22.3946 12.8912 22.2773L15.1402 16.1079ZM16.1935 17.5092H16.1697L15.1402 20.6879H17.1833L16.1935 17.5092Z" fill="#FFE600"/>
<path fill-rule="evenodd" clip-rule="evenodd" d="M19.831 16.4466C19.831 16.182 19.9086 15.9643 20.0635 15.801C20.2187 15.6377 20.4281 15.5599 20.6918 15.5599C20.9089 15.5599 21.0949 15.6221 21.2423 15.7388C21.3897 15.8555 21.4905 16.0188 21.5292 16.2211C21.5448 16.2987 21.5525 16.3689 21.5448 16.4466V22.0468H24.4061C24.6389 22.0468 24.8327 22.0934 24.9878 22.2023C25.1429 22.3034 25.2437 22.4512 25.2746 22.6379C25.2903 22.6844 25.298 22.7468 25.298 22.8011C25.298 23.0423 25.2126 23.2289 25.0421 23.3533C24.8715 23.4857 24.6621 23.5479 24.4061 23.5479H20.8314C20.5677 23.5479 20.3506 23.4934 20.1878 23.3844C20.0249 23.2757 19.9164 23.1045 19.8621 22.8556C19.8387 22.7546 19.831 22.6379 19.8232 22.5057L19.831 16.4466Z" fill="#FFE600"/>
<path fill-rule="evenodd" clip-rule="evenodd" d="M25.4602 16.4524C25.4602 16.1862 25.5402 15.967 25.6999 15.8027C25.8598 15.6382 26.0755 15.5599 26.3471 15.5599C26.5709 15.5599 26.7546 15.6225 26.9143 15.7398C27.0743 15.8574 27.1701 16.0217 27.21 16.2255C27.226 16.3035 27.234 16.3741 27.226 16.4524L27.234 19.0751L30.0068 15.9513C30.1345 15.8181 30.2383 15.7244 30.3423 15.6538C30.446 15.5912 30.5661 15.5599 30.7097 15.5599C30.9016 15.5599 31.0774 15.6148 31.2371 15.7165C31.397 15.8181 31.4928 15.9593 31.5327 16.1392C31.5327 16.147 31.5409 16.1705 31.5488 16.2096C31.5488 16.2332 31.5488 16.2645 31.5567 16.2802C31.5567 16.4054 31.5248 16.515 31.477 16.609C31.421 16.7109 31.349 16.8046 31.269 16.8988L29.4554 18.8402L31.5968 22.1677L31.6607 22.2696C31.8045 22.4965 31.8924 22.661 31.9162 22.7706C31.9162 22.7784 31.9244 22.8019 31.9323 22.8253C31.9323 22.8566 31.9323 22.8723 31.9323 22.88C31.9323 23.1855 31.8444 23.4124 31.6686 23.5456C31.4928 23.6788 31.2772 23.7492 31.0293 23.7492C30.8456 23.7492 30.7018 23.7179 30.5899 23.6552C30.4782 23.5849 30.3581 23.4673 30.2464 23.2794L28.2088 20.0695L27.2421 21.0559L27.2501 22.8489C27.2501 23.1151 27.1701 23.3341 27.0104 23.4986C26.8505 23.663 26.6348 23.7414 26.3632 23.7414C26.1394 23.7414 25.9477 23.6788 25.7957 23.5613C25.6439 23.436 25.5402 23.2794 25.5001 23.0679C25.4842 22.9896 25.4842 22.9193 25.4842 22.841L25.4602 16.4524Z" fill="#FFE600"/>
</svg>
