<svg width="41" height="41" viewBox="0 0 41 41" fill="none" xmlns="http://www.w3.org/2000/svg">
<circle cx="20.5" cy="20.5" r="20.5" fill="#00C536"/>
<path fill-rule="evenodd" clip-rule="evenodd" d="M17.3056 9.06717C14.5429 8.94232 11.7715 9.0315 9 9.02258C9.01772 16.4603 9.00885 23.898 9.00885 31.3358C11.7715 31.3536 14.5429 31.3447 17.3056 31.3358C17.3498 27.6526 17.2524 23.9605 17.3498 20.2683C18.2618 21.5436 19.0853 22.8814 20.0151 24.1388C21.5645 26.5646 23.3179 28.8476 24.8054 31.309C27.5946 31.3804 30.375 31.309 33.164 31.3536C33.1906 31.0058 33.226 30.658 33.226 30.3102C33.1819 23.2113 33.2614 16.1125 33.1906 9.01366C30.437 8.99583 27.6831 9.02258 24.9293 9.00475C24.9117 12.7147 24.9471 16.4246 24.9028 20.1256C22.3439 16.4692 19.9266 12.688 17.3056 9.06717Z" fill="white"/>
</svg>
